<svg width="50" height="50" viewBox="0 0 50 50" fill="none" xmlns="http://www.w3.org/2000/svg">
<path d="M25 4.6875C20.9826 4.6875 17.0554 5.87881 13.715 8.11077C10.3746 10.3427 7.77111 13.5151 6.23371 17.2267C4.6963 20.9384 4.29405 25.0225 5.07781 28.9628C5.86157 32.903 7.79615 36.5224 10.6369 39.3631C13.4777 42.2039 17.097 44.1384 21.0372 44.9222C24.9775 45.706 29.0616 45.3037 32.7733 43.7663C36.4849 42.2289 39.6573 39.6254 41.8892 36.285C44.1212 32.9446 45.3125 29.0174 45.3125 25C45.3068 19.6145 43.1649 14.4513 39.3568 10.6432C35.5487 6.83507 30.3855 4.69319 25 4.6875ZM25 42.1875C21.6006 42.1875 18.2776 41.1795 15.4511 39.2909C12.6247 37.4023 10.4217 34.718 9.12083 31.5774C7.81995 28.4368 7.47958 24.9809 8.14276 21.6469C8.80595 18.3128 10.4429 15.2503 12.8466 12.8466C15.2503 10.4429 18.3128 8.80594 21.6469 8.14275C24.9809 7.47957 28.4368 7.81994 31.5774 9.12082C34.718 10.4217 37.4023 12.6247 39.2909 15.4511C41.1795 18.2776 42.1875 21.6006 42.1875 25C42.1823 29.5568 40.3699 33.9255 37.1477 37.1477C33.9255 40.3699 29.5568 42.1823 25 42.1875ZM34.375 25C34.375 25.4144 34.2104 25.8118 33.9174 26.1049C33.6243 26.3979 33.2269 26.5625 32.8125 26.5625H20.959L24.543 30.1445C24.6882 30.2897 24.8033 30.462 24.8819 30.6517C24.9604 30.8414 25.0009 31.0447 25.0009 31.25C25.0009 31.4553 24.9604 31.6586 24.8819 31.8483C24.8033 32.038 24.6882 32.2103 24.543 32.3555C24.3978 32.5006 24.2255 32.6158 24.0358 32.6944C23.8461 32.7729 23.6428 32.8134 23.4375 32.8134C23.2322 32.8134 23.0289 32.7729 22.8392 32.6944C22.6496 32.6158 22.4772 32.5006 22.332 32.3555L16.082 26.1055C15.9368 25.9604 15.8215 25.788 15.7429 25.5983C15.6643 25.4087 15.6238 25.2053 15.6238 25C15.6238 24.7947 15.6643 24.5913 15.7429 24.4017C15.8215 24.212 15.9368 24.0396 16.082 23.8945L22.332 17.6445C22.6252 17.3513 23.0229 17.1866 23.4375 17.1866C23.8521 17.1866 24.2498 17.3513 24.543 17.6445C24.8362 17.9377 25.0009 18.3354 25.0009 18.75C25.0009 19.1646 24.8362 19.5623 24.543 19.8555L20.959 23.4375H32.8125C33.2269 23.4375 33.6243 23.6021 33.9174 23.8951C34.2104 24.1882 34.375 24.5856 34.375 25Z" fill="black"/>
</svg>
